<?xml version="1.0" standalone="no"?>
<!DOCTYPE svg PUBLIC "-//W3C//DTD SVG 20010904//EN"
 "http://www.w3.org/TR/2001/REC-SVG-20010904/DTD/svg10.dtd">
<svg version="1.0" xmlns="http://www.w3.org/2000/svg"
 width="100.000000pt" height="100.000000pt" viewBox="0 0 100.000000 100.000000"
 preserveAspectRatio="xMidYMid meet">
<metadata>
Created by potrace 1.14, written by Peter Selinger 2001-2017
</metadata>
<g transform="translate(0.000000,100.000000) scale(0.100000,-0.100000)"
fill="#000000" stroke="none">
<path d="M415 931 c-39 -17 -105 -81 -105 -101 0 -6 -56 -10 -137 -10 -76 0
-144 -4 -151 -9 -21 -13 -20 -131 2 -143 14 -8 16 -39 16 -273 0 -252 -1 -266
-20 -285 -24 -24 -25 -34 -4 -54 14 -14 71 -16 484 -16 413 0 470 2 484 16 21
20 20 30 -4 54 -19 19 -20 33 -20 285 0 232 2 265 16 273 20 11 22 131 2 144
-7 4 -75 8 -150 8 -82 0 -138 4 -138 10 0 20 -66 84 -105 101 -22 10 -60 19
-85 19 -25 0 -63 -9 -85 -19z m169 -31 c125 -60 131 -245 10 -316 -46 -27
-138 -33 -168 -11 -16 12 -13 17 32 59 37 35 55 45 73 41 18 -3 33 5 62 35 31
32 37 44 31 66 -8 33 -33 34 -64 1 -28 -29 -60 -33 -60 -7 0 10 13 31 30 47
34 33 26 55 -20 55 -37 0 -93 -61 -85 -93 5 -17 -5 -33 -44 -71 -48 -47 -49
-48 -56 -25 -12 38 -8 104 8 135 19 37 64 80 97 93 41 16 111 12 154 -9z
m-266 -265 c7 -14 12 -55 12 -90 l0 -65 -70 0 -70 0 0 -180 0 -180 -60 0 -60
0 0 270 0 270 118 0 c118 0 119 0 130 -25z m612 -245 l0 -270 -60 0 -60 0 0
180 0 180 -70 0 -70 0 0 65 c0 35 5 76 12 90 11 25 12 25 130 25 l118 0 0
-270z"/>
</g>
</svg>
